<svg id="Слой_1" data-name="Слой 1" xmlns="http://www.w3.org/2000/svg" viewBox="0 0 102.82 116.11"><defs><style>.cls-1{fill:#fcc069;}.cls-2{fill:#bfbdba;}</style></defs><path class="cls-1" d="M112.79,45.54,70.87,8A7.88,7.88,0,0,0,60.32,8L25.67,39.41H47.94L84.51,72.73A7.87,7.87,0,0,0,95,72.84l17.72-15.5A7.88,7.88,0,0,0,112.79,45.54Zm-46-13.34a3.94,3.94,0,1,1,5.57,0A3.94,3.94,0,0,1,66.82,32.2Zm9.6,9.59a3.94,3.94,0,1,1,5.57,0A3.94,3.94,0,0,1,76.42,41.79ZM86.63,52a3.94,3.94,0,1,1,5.57,0A3.94,3.94,0,0,1,86.63,52Z" transform="translate(-12.59 -5.94)"/><path class="cls-2" d="M15.21,82.46l41.92,37.59a7.88,7.88,0,0,0,10.55,0l34.65-31.43H80.06L43.49,55.27A7.87,7.87,0,0,0,33,55.16L15.28,70.66A7.88,7.88,0,0,0,15.21,82.46Zm46,13.34a3.94,3.94,0,1,1-5.57,0A3.94,3.94,0,0,1,61.18,95.8Zm-9.6-9.59a3.94,3.94,0,1,1-5.57,0A3.94,3.94,0,0,1,51.58,86.21ZM41.37,76a3.94,3.94,0,1,1-5.57,0A3.94,3.94,0,0,1,41.37,76Z" transform="translate(-12.59 -5.94)"/></svg>